{"title":"Mr Holmes(2015)MPEG-4[DaScubaDude]","uid":13889107,"size":1047484042,"categoryP":"video","categoryS":"movies","magnet":"?xt=urn:btih:e456c6bd73f3f64c6132d10dcd55f236746f1db4&amp;dn=Mr+Holmes%282015%29MPEG-4%5BDaScubaDude%5D&amp;tr=udp%3A%2F%2Ftracker.leechers-paradise.org%3A6969&amp;tr=udp%3A%2F%2Fzer0day.ch%3A1337&amp;tr=udp%3A%2F%2Fopen.demonii.com%3A1337&amp;tr=udp%3A%2F%2Ftracker.coppersurfer.tk%3A6969&amp;tr=udp%3A%2F%2Fexodus.desync.com%3A6969","seeders":0,"leechers":1,"uploader":"dascuba","files":1,"time":1458207014,"description":"Mr. Holmes (2015)\r\nPG | 1h 44min | Drama, Mystery | 24 July 2015 (USA)\r\nAn aged, retired Sherlock Holmes deals with early dementia as he tries to remember both his final case and a mysterious woman whose memory haunts him. He also befriends a fan, the young son of his housekeeper, who wants him to work again.\r\nDirector: Bill Condon\r\nWriters: Mitch Cullin (novel), Jeffrey Hatcher (screenplay)\r\nStars: Ian McKellen, Laura Linney, Hiroyuki Sanada\r\n\r\nGeneral\r\nComplete name                            : Mr HolmesMR_HOLMES_Title5.mp4\r\nFormat                                   : MPEG-4\r\nFormat profile                           : Base Media\r\nCodec ID                                 : isom\r\nFile size                                : 999 MiB\r\nDuration                                 : 1h 44mn\r\nOverall bit rate                         : 1 341 Kbps\r\nMovie name                               : MR_HOLMES\r\nGenre                                    : Mystery\r\nWriting application                      : Lavf54.6.100\r\n\r\nVideo\r\nID                                       : 1\r\nFormat                                   : AVC\r\nFormat/Info                              : Advanced Video Codec\r\nFormat profile                           :   \r\nFormat settings, CABAC                   : No\r\nFormat settings, ReFrames                : 6 frames\r\nFormat settings, GOP                     : M=1, N=60\r\nCodec ID                                 : avc1\r\nCodec ID/Info                            : Advanced Video Coding\r\nDuration                                 : 1h 44mn\r\nBit rate                                 : 1 206 Kbps\r\nWidth                                    : 720 pixels\r\nHeight                                   : 404 pixels\r\nDisplay aspect ratio                     : 16:9\r\nFrame rate mode                          : Constant\r\nFrame rate                               : 29.970 fps\r\nColor space                              : YUV\r\nChroma subsampling                       : 4:2:0\r\nBit depth                                : 8 bits\r\nScan type                                : Progressive\r\nBits/(Pixel*Frame)                       : 0.138\r\nStream size                              : 899 MiB (90%)\r\n\r\nAudio\r\nID                                       : 2\r\nFormat                                   : AAC\r\nFormat/Info                              : Advanced Audio Codec\r\nFormat profile                           : LC\r\nCodec ID                                 : 40\r\nDuration                                 : 1h 44mn\r\nBit rate mode                            : Constant\r\nBit rate                                 : 128 Kbps\r\nChannel(s)                               : 2 channels\r\nChannel positions                        : Front: L R\r\nSampling rate                            : 44.1 KHz\r\nCompression mode                         : Lossy\r\nStream size                              : 95.4 MiB (10%)","torrent":{"xt":"urn:btih:e456c6bd73f3f64c6132d10dcd55f236746f1db4","amp;dn":"Mr+Holmes%282015%29MPEG-4%5BDaScubaDude%5D","amp;tr":["udp%3A%2F%2Ftracker.leechers-paradise.org%3A6969","udp%3A%2F%2Fzer0day.ch%3A1337","udp%3A%2F%2Fopen.demonii.com%3A1337","udp%3A%2F%2Ftracker.coppersurfer.tk%3A6969","udp%3A%2F%2Fexodus.desync.com%3A6969"],"infoHash":"e456c6bd73f3f64c6132d10dcd55f236746f1db4","infoHashBuffer":{"type":"Buffer","data":[228,86,198,189,115,243,246,76,97,50,209,13,205,85,242,54,116,111,29,180]},"announce":[],"urlList":[]}}